<?xml version="1.0" encoding="utf-8"?>
<!-- Generator: Adobe Illustrator 24.1.3, SVG Export Plug-In . SVG Version: 6.00 Build 0)  -->
<svg version="1.1" id="Layer_1" xmlns="http://www.w3.org/2000/svg" xmlns:xlink="http://www.w3.org/1999/xlink" x="0px" y="0px"
	 viewBox="0 0 637.5 410.4" style="enable-background:new 0 0 637.5 410.4;" xml:space="preserve">
<style type="text/css">
	.st0{fill:#6D71F9;}
	.st1{opacity:0.69;fill:#121936;}
	.st2{fill:#BBC7F9;}
	.st3{fill:#5574D8;}
	.st4{fill:#60C4FB;}
	.st5{fill:#FFFFFF;}
	.st6{fill:#FFE8E8;}
	.st7{opacity:0.69;fill:#363950;}
	.st8{fill:#121936;}
	.st9{fill:#363950;}
	.st10{fill:#FF9C9C;}
	.st11{fill:#FF6969;}
	.st12{opacity:0.44;}
	.st13{fill:none;stroke:#FF6969;stroke-width:5;stroke-linecap:round;stroke-linejoin:round;stroke-miterlimit:10;}
	.st14{fill:#4B74FF;}
	.st15{fill:#481EF3;}
	.st16{fill:#481EEF;}
	.st17{opacity:0.47;fill:#FFFFFF;}
	.st18{opacity:0.36;fill:#FF6969;}
	.st19{fill:#C0E7F9;}
	.st20{fill:#ABDDEF;}
	.st21{fill:#FFD084;}
	.st22{fill:none;}
</style>
<g>
	<g>
		<path class="st0" d="M585.6,145.7l-1.6-36.9c-0.2-5-5.1-8.5-9.9-7.1L539,112.1c-4,1-6.5,5.1-5.5,9.1c1,4,5.1,6.5,9.1,5.5l16.2-4.1
			l-64.5,89.9L461,159.7c-2-3.2-5.4-5-9.2-5c-3.7,0.1-7.1,2-9,5.2l-61.2,103.4l-56-130.3c-1.5-3.5-4.8-6-8.6-6.4
			c-3.8-0.4-7.5,1.2-9.8,4.3L206.8,267.7L151.9,169c-1.8-3.2-5-5.2-8.6-5.5c-3.6-0.2-7.1,1.4-9.3,4.3L77,245.4
			c-2.5,3.3-1.7,8,1.6,10.5c3.3,2.5,8,1.7,10.5-1.6l52.9-72L197,281c1.5,2.7,4.1,4.6,7.1,5.2c0.5,0.1,1.1,0.2,1.6,0.2
			c3.6,0.2,7.1-1.4,9.3-4.3l99.9-136l56.4,131.2c1.6,3.7,5.1,6.2,9.1,6.4c4,0.3,7.8-1.7,9.9-5.2l61.9-104.7l33,52.2
			c1.9,3,5.2,4.9,8.7,5c3.5,0.1,6.9-1.6,9-4.4l67.2-93.8l0.6,13.6c0.1,3.5,2.7,6.3,5.9,7c0.6,0.1,1.2,0.2,1.9,0.2
			C582.6,153.4,585.8,149.9,585.6,145.7z"/>
		<g>
			<path class="st1" d="M529.8,206.2l-36.4-37.5c-0.6-0.6-0.6-1.5,0-2.1c0.6-0.6,1.5-0.6,2.1,0l34.3,35.4l38.7-36.3l46.6,36.1
				c0.7,0.5,0.8,1.5,0.3,2.1c-0.5,0.7-1.5,0.8-2.1,0.3l-44.5-34.5L529.8,206.2z"/>
			<circle class="st2" cx="494.6" cy="167.6" r="9.7"/>
			<circle class="st2" cx="568.7" cy="167.6" r="9.7"/>
			<circle class="st3" cx="529.9" cy="203" r="9.7"/>
			<circle class="st3" cx="614.3" cy="203" r="9.7"/>
		</g>
	</g>
	<g>
		<g>
			
				<ellipse transform="matrix(0.7071 -0.7071 0.7071 0.7071 -199.5547 144.4458)" class="st3" cx="74.6" cy="313.1" rx="38.5" ry="38.5"/>
			
				<ellipse transform="matrix(0.9441 -0.3297 0.3297 0.9441 -97.4699 42.2812)" class="st4" cx="75.9" cy="308.5" rx="38.5" ry="38.5"/>
			<path class="st5" d="M76,342c-4.9,0-9.8-1.1-14.3-3.3c-8-3.8-14.1-10.6-17-18.9c-3-8.4-2.5-17.4,1.4-25.4s10.6-14.1,18.9-17
				c8.4-3,17.4-2.5,25.4,1.4c8,3.8,14.1,10.6,17,18.9s2.5,17.4-1.4,25.4l0,0c-3.8,8-10.6,14.1-18.9,17C83.5,341.4,79.8,342,76,342z
				 M76.1,276.4c-3.6,0-7.3,0.6-10.8,1.9c-8.1,2.9-14.7,8.7-18.4,16.5c-3.7,7.8-4.2,16.5-1.3,24.7c2.9,8.1,8.7,14.7,16.5,18.4
				c7.8,3.7,16.5,4.2,24.7,1.3c8.1-2.9,14.7-8.7,18.4-16.5l0,0c3.7-7.8,4.2-16.5,1.3-24.7c-2.9-8.1-8.7-14.7-16.5-18.4
				C85.6,277.5,80.8,276.4,76.1,276.4z"/>
			<g>
				<g>
					<path class="st5" d="M78,323.5c-2,0.3-3.9,0.4-5.8,0.2c-1.8-0.2-3.4-0.6-4.8-1.1c-0.8-0.3-1.3-0.8-1.4-1.6
						c-0.1-0.6-0.1-1.1,0.2-1.7c0.3-0.5,0.8-0.9,1.4-1c0.5-0.1,1-0.1,1.6,0.1c1.5,0.4,2.9,0.7,4.4,0.9c1.5,0.1,3,0,4.7-0.4
						c0.6-0.2,1.2-0.3,1.8-0.5c0.5-0.2,1.1-0.5,1.5-0.8c0.5-0.3,0.9-0.6,1.3-1c0.4-0.4,0.7-0.7,0.9-1.1c0.2-0.4,0.4-0.8,0.4-1.3
						c0.1-0.5,0-1-0.1-1.6c-0.2-1-0.8-1.7-1.7-2.2c-0.9-0.5-2.2-0.7-3.8-0.7l-5.3,0c-1.1,0-1.9,0-2.6-0.1c-0.7,0-1.4-0.1-2.2-0.2
						c-0.8-0.1-1.5-0.2-2-0.4c-0.5-0.2-1.1-0.4-1.6-0.7c-0.6-0.3-1-0.7-1.4-1.1c-0.4-0.4-0.7-1-1-1.6c-0.3-0.6-0.6-1.3-0.8-2.1
						c-0.2-0.7-0.3-1.5-0.3-2.2s0.1-1.4,0.3-2c0.2-0.6,0.5-1.2,0.8-1.8c0.4-0.6,0.8-1.1,1.3-1.6c0.5-0.5,1.1-0.9,1.7-1.4
						c0.6-0.4,1.3-0.8,2.1-1.1c0.7-0.3,1.5-0.7,2.4-0.9l-1.5-6.2c-0.2-0.6-0.1-1.2,0.2-1.6c0.3-0.4,0.7-0.7,1.2-0.8
						c0.5-0.1,1-0.1,1.5,0.2c0.5,0.3,0.8,0.7,1,1.3l1.5,6.2c1.1-0.2,2.1-0.2,3.2-0.2c1.1,0,2,0.1,2.7,0.2c0.7,0.1,1.4,0.2,2.1,0.4
						c1.1,0.2,1.7,0.8,2,1.8c0,0.2,0.1,0.4,0.1,0.6c0,0.2-0.1,0.4-0.1,0.6c-0.1,0.2-0.2,0.4-0.3,0.5c-0.1,0.2-0.3,0.3-0.5,0.4
						c-0.2,0.1-0.4,0.2-0.7,0.3c-0.1,0-0.2,0-0.4,0.1c-0.1,0-0.2,0-0.4,0c-0.1,0-0.3,0-0.4,0c0,0-0.3,0-0.9-0.1
						c-0.6-0.1-0.9-0.1-1.2-0.1c-0.2,0-0.7,0-1.3-0.1c-0.6,0-1.1,0-1.6,0c-0.4,0-0.9,0.1-1.6,0.1c-0.6,0.1-1.2,0.2-1.7,0.3
						c-1.2,0.3-2.2,0.7-3,1.1c-0.8,0.5-1.5,1-2,1.8c-0.5,0.7-0.6,1.5-0.4,2.4c0.3,1.1,0.8,1.8,1.5,2.1c0.7,0.3,2.1,0.5,4.1,0.5
						l5.2,0c3.4,0,5.9,0.5,7.7,1.6c1.8,1,2.9,2.7,3.5,5c0.7,2.8,0.3,5.1-1.1,7.2c-1.4,2-3.6,3.6-6.6,4.6l1.5,6.1
						c0.1,0.6,0.1,1.1-0.2,1.6c-0.3,0.5-0.7,0.7-1.3,0.9c-0.3,0.1-0.6,0.1-1,0c-0.3-0.1-0.6-0.2-0.9-0.5c-0.3-0.3-0.5-0.6-0.6-1
						L78,323.5z"/>
				</g>
			</g>
		</g>
		<g>
			
				<ellipse transform="matrix(1.811849e-02 -0.9998 0.9998 1.811849e-02 -122.3961 413.8978)" class="st3" cx="149.5" cy="269.3" rx="27" ry="27"/>
			
				<ellipse transform="matrix(0.1756 -0.9845 0.9845 0.1756 -138.2918 366.736)" class="st4" cx="149.8" cy="265.9" rx="27" ry="27"/>
			<path class="st5" d="M150,289.6c-1.9,0-3.8-0.2-5.7-0.7c-12.6-3.1-20.3-15.9-17.2-28.5c3.1-12.6,15.9-20.3,28.5-17.2
				c6.1,1.5,11.2,5.3,14.5,10.7c3.2,5.4,4.2,11.7,2.7,17.8l0,0c-1.5,6.1-5.3,11.2-10.7,14.5C158.4,288.4,154.2,289.6,150,289.6z
				 M149.9,243.5c-10.1,0-19.3,6.9-21.9,17.1c-3,12.1,4.4,24.3,16.4,27.3c5.8,1.5,11.9,0.5,17-2.6c5.2-3.1,8.8-8,10.2-13.9l0,0
				c3-12.1-4.4-24.3-16.4-27.3C153.6,243.7,151.7,243.5,149.9,243.5z"/>
			<g>
				<g>
					<path class="st5" d="M153.4,275.9c-1.3,0.5-2.6,0.8-3.9,0.9s-2.4,0.1-3.4-0.1c-0.6-0.1-1-0.4-1.2-0.9c-0.2-0.4-0.2-0.8-0.1-1.2
						c0.1-0.4,0.4-0.7,0.8-0.9c0.3-0.2,0.7-0.2,1.1-0.2c1.1,0.1,2.1,0.1,3.1,0c1-0.1,2.1-0.4,3.2-0.9c0.4-0.2,0.8-0.4,1.1-0.6
						c0.3-0.2,0.7-0.5,1-0.7s0.5-0.6,0.7-0.8c0.2-0.3,0.3-0.6,0.5-0.9c0.1-0.3,0.1-0.6,0.1-1c0-0.3-0.1-0.7-0.3-1.1
						c-0.3-0.7-0.8-1.1-1.5-1.3c-0.7-0.2-1.6-0.2-2.7,0l-3.6,0.7c-0.7,0.1-1.3,0.2-1.8,0.3c-0.5,0.1-1,0.1-1.6,0.2c-0.6,0-1,0-1.4,0
						c-0.4,0-0.8-0.1-1.2-0.3c-0.4-0.1-0.8-0.3-1.1-0.6c-0.3-0.2-0.6-0.6-0.9-0.9c-0.3-0.4-0.6-0.8-0.8-1.4c-0.2-0.5-0.4-1-0.5-1.5
						c-0.1-0.5-0.1-1-0.1-1.4c0.1-0.5,0.2-0.9,0.3-1.3c0.2-0.4,0.4-0.9,0.7-1.3c0.3-0.4,0.6-0.8,1-1.2c0.4-0.4,0.8-0.7,1.3-1.1
						c0.5-0.3,1-0.7,1.5-1l-1.9-4c-0.2-0.4-0.2-0.8-0.1-1.1c0.1-0.3,0.4-0.6,0.7-0.8c0.3-0.2,0.7-0.2,1.1-0.1
						c0.4,0.1,0.7,0.4,0.8,0.7l1.9,4.1c0.7-0.3,1.4-0.5,2.2-0.6c0.7-0.1,1.4-0.2,1.9-0.3c0.5,0,1,0,1.5,0c0.8,0,1.3,0.3,1.6,0.9
						c0.1,0.1,0.1,0.3,0.1,0.4c0,0.2,0,0.3,0,0.4c0,0.1-0.1,0.3-0.1,0.4c-0.1,0.1-0.1,0.3-0.3,0.4c-0.1,0.1-0.3,0.2-0.4,0.3
						c-0.1,0-0.2,0.1-0.2,0.1c-0.1,0-0.2,0-0.3,0.1c-0.1,0-0.2,0-0.3,0c0,0-0.2,0-0.6,0.1c-0.4,0-0.7,0.1-0.8,0.1
						c-0.2,0-0.5,0.1-0.9,0.1c-0.4,0.1-0.8,0.1-1.1,0.2c-0.3,0.1-0.6,0.2-1,0.3c-0.4,0.1-0.8,0.3-1.2,0.5c-0.8,0.4-1.4,0.8-1.9,1.2
						c-0.5,0.4-0.9,0.9-1.1,1.5c-0.2,0.6-0.2,1.1,0.1,1.7c0.3,0.7,0.8,1.1,1.3,1.2c0.6,0.1,1.5,0,2.9-0.3l3.6-0.7
						c2.3-0.5,4.1-0.5,5.5,0c1.4,0.5,2.4,1.5,3.1,3c0.9,1.8,0.9,3.5,0.2,5.1c-0.7,1.6-2,3-3.9,4.1l1.9,4c0.2,0.4,0.2,0.8,0.1,1.1
						c-0.2,0.4-0.4,0.6-0.8,0.8c-0.2,0.1-0.4,0.1-0.7,0.1c-0.2,0-0.5-0.1-0.7-0.2c-0.2-0.1-0.4-0.3-0.5-0.6L153.4,275.9z"/>
				</g>
			</g>
		</g>
		<g>
			
				<ellipse transform="matrix(0.5169 -0.856 0.856 0.5169 -239.9177 291.1656)" class="st3" cx="138" cy="358.1" rx="21.4" ry="21.4"/>
			<circle class="st4" cx="138.9" cy="355.6" r="21.4"/>
			<path class="st5" d="M138.9,374.5c-3,0-5.9-0.7-8.7-2.1c-4.4-2.3-7.7-6.2-9.2-11c-1.5-4.8-1-9.9,1.3-14.3c2.3-4.4,6.2-7.7,11-9.2
				c4.8-1.5,9.9-1,14.3,1.3c4.4,2.3,7.7,6.2,9.2,11c1.5,4.8,1,9.9-1.3,14.3c-2.3,4.4-6.2,7.7-11,9.2
				C142.7,374.2,140.8,374.5,138.9,374.5z M138.9,338c-1.8,0-3.6,0.3-5.3,0.8c-4.5,1.4-8.2,4.5-10.4,8.7c-2.2,4.2-2.6,9-1.2,13.5
				c1.4,4.5,4.5,8.2,8.7,10.4c4.2,2.2,9,2.6,13.5,1.2c4.5-1.4,8.2-4.5,10.4-8.7c2.2-4.2,2.6-9,1.2-13.5c-1.4-4.5-4.5-8.2-8.7-10.4
				C144.6,338.7,141.8,338,138.9,338z"/>
			<g>
				<g>
					<path class="st5" d="M139.7,364c-1.1,0.1-2.2,0.1-3.2,0c-1-0.1-1.9-0.4-2.6-0.7c-0.4-0.2-0.7-0.5-0.8-0.9
						c-0.1-0.3,0-0.6,0.2-0.9c0.2-0.3,0.4-0.5,0.8-0.5c0.3-0.1,0.6,0,0.9,0.1c0.8,0.3,1.6,0.5,2.4,0.6c0.8,0.1,1.7,0.1,2.6-0.1
						c0.3-0.1,0.7-0.2,1-0.3c0.3-0.1,0.6-0.2,0.9-0.4c0.3-0.2,0.5-0.3,0.7-0.5c0.2-0.2,0.4-0.4,0.5-0.6c0.1-0.2,0.2-0.5,0.3-0.7
						c0-0.3,0-0.6,0-0.9c-0.1-0.6-0.4-1-0.9-1.3c-0.5-0.3-1.2-0.4-2.1-0.5l-2.9-0.1c-0.6,0-1.1-0.1-1.5-0.1c-0.4,0-0.8-0.1-1.2-0.2
						c-0.4-0.1-0.8-0.2-1.1-0.3c-0.3-0.1-0.6-0.2-0.9-0.4c-0.3-0.2-0.6-0.4-0.8-0.6c-0.2-0.2-0.4-0.5-0.5-0.9s-0.3-0.7-0.4-1.2
						c-0.1-0.4-0.1-0.8-0.1-1.2c0-0.4,0.1-0.8,0.2-1.1c0.1-0.3,0.3-0.7,0.5-1c0.2-0.3,0.5-0.6,0.8-0.9c0.3-0.3,0.6-0.5,1-0.7
						c0.4-0.2,0.8-0.4,1.2-0.6c0.4-0.2,0.9-0.3,1.3-0.5l-0.7-3.5c-0.1-0.3,0-0.6,0.1-0.9c0.2-0.2,0.4-0.4,0.7-0.4
						c0.3-0.1,0.6,0,0.8,0.1c0.3,0.2,0.4,0.4,0.5,0.7l0.7,3.5c0.6-0.1,1.2-0.1,1.8-0.1c0.6,0,1.1,0.1,1.5,0.1
						c0.4,0.1,0.8,0.2,1.1,0.3c0.6,0.1,1,0.5,1.1,1c0,0.1,0,0.2,0,0.3c0,0.1,0,0.2-0.1,0.3c0,0.1-0.1,0.2-0.2,0.3
						c-0.1,0.1-0.2,0.2-0.3,0.2c-0.1,0.1-0.2,0.1-0.4,0.1c-0.1,0-0.1,0-0.2,0c-0.1,0-0.1,0-0.2,0c-0.1,0-0.2,0-0.2,0
						c0,0-0.2,0-0.5-0.1c-0.3,0-0.5-0.1-0.7-0.1c-0.1,0-0.4,0-0.7-0.1c-0.3,0-0.6,0-0.9,0c-0.2,0-0.5,0-0.9,0c-0.3,0-0.7,0.1-1,0.1
						c-0.7,0.1-1.2,0.3-1.7,0.6c-0.5,0.2-0.9,0.5-1.1,0.9c-0.3,0.4-0.4,0.8-0.3,1.3c0.1,0.6,0.4,1,0.8,1.2s1.2,0.3,2.3,0.3l2.9,0.1
						c1.9,0.1,3.3,0.4,4.2,1c1,0.6,1.6,1.6,1.8,2.9c0.3,1.5,0.1,2.9-0.8,4c-0.8,1.1-2.1,1.9-3.8,2.4l0.7,3.4c0.1,0.3,0,0.6-0.2,0.9
						c-0.2,0.2-0.4,0.4-0.7,0.5c-0.2,0-0.4,0-0.5,0c-0.2,0-0.3-0.1-0.5-0.3c-0.1-0.1-0.2-0.3-0.3-0.6L139.7,364z"/>
				</g>
			</g>
		</g>
		<g>
			<g>
				
					<ellipse transform="matrix(0.9995 -3.245906e-02 3.245906e-02 0.9995 -1.6561 13.8019)" class="st3" cx="424.3" cy="57.9" rx="38.5" ry="38.5"/>
				
					<ellipse transform="matrix(0.7071 -0.7071 0.7071 0.7071 86.4199 318.8683)" class="st4" cx="428.1" cy="55.1" rx="38.5" ry="38.5"/>
				<path class="st5" d="M428.2,88.6c-3.5,0-7-0.5-10.3-1.7c-8.5-2.8-15.3-8.6-19.4-16.6c-8.3-16.4-1.8-36.4,14.6-44.8
					c16.4-8.3,36.4-1.8,44.8,14.6c4,7.9,4.7,16.9,2,25.4C457,74.1,451.1,81,443.2,85C438.5,87.4,433.3,88.6,428.2,88.6z M428.1,23
					c-4.9,0-9.9,1.1-14.6,3.5c-15.9,8.1-22.2,27.6-14.1,43.4c3.9,7.7,10.6,13.4,18.8,16.1c8.2,2.7,17,2,24.6-1.9l0,0
					c7.7-3.9,13.4-10.6,16.1-18.8c2.7-8.2,2-17-1.9-24.6C451.2,29.5,439.8,23,428.1,23z"/>
				<g>
					<g>
						<path class="st5" d="M420.7,68.2c-1.8-1-3.4-2.1-4.7-3.3c-1.3-1.3-2.4-2.5-3.1-3.7c-0.4-0.7-0.5-1.4-0.2-2.1
							c0.2-0.6,0.6-0.9,1.2-1.2c0.6-0.2,1.1-0.2,1.7,0c0.5,0.2,0.9,0.5,1.2,1c0.9,1.2,1.9,2.3,2.9,3.4c1.1,1,2.4,1.9,4,2.5
							c0.6,0.3,1.2,0.5,1.7,0.6c0.6,0.2,1.1,0.3,1.7,0.3c0.6,0.1,1.1,0.1,1.6,0c0.5-0.1,1-0.2,1.4-0.4c0.4-0.2,0.8-0.4,1.2-0.8
							c0.3-0.4,0.6-0.8,0.9-1.3c0.4-1,0.4-1.9,0-2.8c-0.4-0.9-1.3-1.9-2.6-2.9l-4.2-3.2c-0.8-0.7-1.5-1.2-2-1.6
							c-0.5-0.4-1.1-1-1.7-1.5c-0.6-0.6-1-1.1-1.3-1.5c-0.3-0.5-0.6-1-0.9-1.5c-0.3-0.6-0.4-1.1-0.4-1.7c0-0.6,0-1.2,0.1-1.9
							c0.1-0.7,0.4-1.4,0.7-2.2c0.3-0.7,0.7-1.3,1.1-1.9c0.4-0.6,0.9-1,1.5-1.4c0.5-0.4,1.1-0.7,1.7-0.9c0.6-0.2,1.3-0.4,2-0.5
							c0.7-0.1,1.4-0.1,2.2,0c0.8,0.1,1.5,0.2,2.3,0.4c0.8,0.2,1.6,0.4,2.5,0.7l2.5-5.8c0.3-0.6,0.6-1,1.1-1.1s1-0.1,1.5,0.1
							c0.5,0.2,0.9,0.6,1.1,1.1c0.2,0.5,0.2,1,0,1.6l-2.6,5.9c0.9,0.5,1.8,1.1,2.7,1.8c0.8,0.7,1.5,1.2,2,1.8s1,1,1.4,1.6
							c0.7,0.8,0.9,1.7,0.5,2.6c-0.1,0.2-0.2,0.4-0.3,0.5c-0.1,0.2-0.3,0.3-0.5,0.4c-0.2,0.1-0.4,0.2-0.6,0.2
							c-0.2,0.1-0.4,0.1-0.7,0.1c-0.2,0-0.5-0.1-0.7-0.2c-0.1,0-0.2-0.1-0.3-0.2c-0.1-0.1-0.2-0.1-0.3-0.2c-0.1-0.1-0.2-0.2-0.3-0.3
							c0,0-0.2-0.2-0.6-0.6c-0.4-0.4-0.7-0.7-0.9-0.8c-0.2-0.2-0.5-0.4-1-0.8c-0.5-0.4-0.9-0.7-1.2-0.9c-0.4-0.2-0.8-0.5-1.3-0.8
							c-0.5-0.3-1-0.6-1.6-0.8c-1.1-0.5-2.1-0.8-3.1-1c-1-0.2-1.8-0.1-2.6,0.2s-1.4,0.8-1.7,1.7c-0.4,1-0.5,1.9-0.1,2.6
							c0.4,0.7,1.4,1.7,3,2.9l4.1,3.2c2.7,2,4.4,4,5.1,5.9c0.8,1.9,0.7,3.9-0.3,6.1c-1.1,2.6-2.9,4.3-5.3,5c-2.4,0.7-5,0.6-8-0.4
							l-2.5,5.8c-0.2,0.6-0.6,0.9-1.2,1.1c-0.5,0.2-1,0.1-1.6-0.1c-0.3-0.1-0.6-0.3-0.8-0.6c-0.2-0.2-0.3-0.6-0.4-0.9
							c-0.1-0.4,0-0.7,0.2-1.1L420.7,68.2z"/>
					</g>
				</g>
			</g>
			<g>
				
					<ellipse transform="matrix(0.1124 -0.9937 0.9937 0.1124 314.2701 590.0179)" class="st3" cx="487.4" cy="119.1" rx="23.7" ry="23.7"/>
				
					<ellipse transform="matrix(0.1124 -0.9937 0.9937 0.1124 318.174 590.0644)" class="st4" cx="489.4" cy="116.9" rx="23.7" ry="23.7"/>
				<path class="st5" d="M489.4,137.8c-0.8,0-1.6,0-2.4-0.1c-5.5-0.6-10.4-3.3-13.9-7.7c-7.1-8.9-5.6-22,3.3-29.1
					c4.3-3.4,9.7-5,15.2-4.4c5.5,0.6,10.4,3.3,13.9,7.7c3.4,4.3,5,9.7,4.4,15.2c-0.6,5.5-3.3,10.4-7.7,13.9l0,0
					C498.6,136.2,494.1,137.8,489.4,137.8z M489.4,97.4c-4.4,0-8.7,1.5-12.2,4.3c-8.5,6.8-9.9,19.2-3.1,27.7c3.3,4.1,8,6.7,13.2,7.3
					c5.2,0.6,10.4-0.9,14.5-4.2l0,0c4.1-3.3,6.7-8,7.3-13.2c0.6-5.2-0.9-10.4-4.2-14.5c-3.3-4.1-8-6.7-13.2-7.3
					C490.9,97.4,490.1,97.4,489.4,97.4z"/>
				<g>
					<g>
						<path class="st5" d="M486.5,125.8c-1.2-0.4-2.3-0.8-3.2-1.4c-1-0.6-1.7-1.2-2.3-1.9c-0.3-0.4-0.5-0.8-0.4-1.3
							c0.1-0.4,0.3-0.7,0.6-0.9c0.3-0.2,0.7-0.3,1.1-0.2c0.3,0.1,0.6,0.2,0.9,0.5c0.7,0.6,1.4,1.2,2.2,1.7s1.7,0.8,2.7,1
							c0.4,0.1,0.8,0.1,1.1,0.2c0.4,0,0.7,0,1.1,0c0.3,0,0.7-0.1,1-0.2c0.3-0.1,0.6-0.2,0.8-0.4c0.2-0.2,0.4-0.4,0.6-0.6
							c0.2-0.3,0.3-0.6,0.4-0.9c0.1-0.6,0-1.2-0.3-1.7c-0.4-0.5-1-1-1.9-1.4l-2.9-1.4c-0.6-0.3-1.1-0.5-1.4-0.7
							c-0.4-0.2-0.8-0.4-1.2-0.7c-0.4-0.3-0.8-0.5-1-0.8c-0.3-0.2-0.5-0.5-0.7-0.8c-0.2-0.3-0.4-0.6-0.5-1c-0.1-0.3-0.1-0.7-0.1-1.1
							c0-0.4,0-0.9,0.1-1.4c0.1-0.5,0.2-0.9,0.4-1.3c0.2-0.4,0.4-0.7,0.7-1c0.3-0.3,0.6-0.5,0.9-0.8c0.4-0.2,0.7-0.4,1.2-0.5
							c0.4-0.1,0.9-0.2,1.3-0.3s1-0.1,1.5-0.1c0.5,0,1,0.1,1.6,0.1l0.8-3.8c0.1-0.4,0.3-0.7,0.5-0.8c0.3-0.2,0.6-0.2,0.9-0.1
							c0.3,0.1,0.6,0.2,0.8,0.5c0.2,0.3,0.3,0.6,0.2,1l-0.8,3.9c0.6,0.2,1.2,0.4,1.8,0.7c0.6,0.3,1.1,0.6,1.4,0.8
							c0.4,0.2,0.7,0.5,1.1,0.8c0.5,0.4,0.7,0.9,0.6,1.5c0,0.1-0.1,0.2-0.1,0.4c-0.1,0.1-0.1,0.2-0.2,0.3c-0.1,0.1-0.2,0.2-0.3,0.2
							c-0.1,0.1-0.2,0.1-0.4,0.1c-0.1,0-0.3,0-0.4,0c-0.1,0-0.1,0-0.2-0.1c-0.1,0-0.1-0.1-0.2-0.1c-0.1,0-0.2-0.1-0.2-0.1
							c0,0-0.2-0.1-0.4-0.3c-0.3-0.2-0.5-0.3-0.6-0.4c-0.1-0.1-0.4-0.2-0.7-0.4c-0.3-0.2-0.6-0.3-0.9-0.4c-0.2-0.1-0.5-0.2-0.9-0.3
							c-0.4-0.1-0.7-0.2-1.1-0.3c-0.7-0.2-1.4-0.2-2-0.2c-0.6,0-1.1,0.2-1.6,0.4c-0.4,0.3-0.7,0.7-0.8,1.2c-0.1,0.7-0.1,1.2,0.3,1.6
							c0.3,0.4,1,0.8,2.2,1.4l2.9,1.4c1.9,0.9,3.1,1.9,3.8,2.9c0.7,1,0.9,2.3,0.6,3.7c-0.4,1.7-1.2,2.9-2.6,3.7
							c-1.3,0.7-3,1-4.9,0.8l-0.8,3.8c-0.1,0.4-0.3,0.6-0.6,0.8s-0.6,0.2-1,0.1c-0.2,0-0.4-0.1-0.5-0.3c-0.2-0.1-0.3-0.3-0.4-0.5
							c-0.1-0.2-0.1-0.5,0-0.7L486.5,125.8z"/>
					</g>
				</g>
			</g>
			<g>
				
					<ellipse transform="matrix(0.2516 -0.9678 0.9678 0.2516 186.9938 503.7068)" class="st3" cx="419.2" cy="130.9" rx="19.6" ry="19.6"/>
				
					<ellipse transform="matrix(0.9966 -8.184870e-02 8.184870e-02 0.9966 -9.1943 34.9086)" class="st4" cx="421.2" cy="129.6" rx="19.6" ry="19.6"/>
				<path class="st5" d="M421.2,146.9c-2,0-4-0.4-5.9-1.1c-4.3-1.6-7.7-4.7-9.7-8.9c-4-8.6-0.2-18.8,8.3-22.8
					c8.6-4,18.8-0.2,22.8,8.3c4,8.6,0.2,18.8-8.3,22.8l0,0C426.1,146.3,423.7,146.9,421.2,146.9z M421.2,113.5
					c-2.3,0-4.6,0.5-6.8,1.5c-8.1,3.8-11.6,13.4-7.9,21.5c1.8,3.9,5.1,6.9,9.1,8.4c4.1,1.5,8.4,1.3,12.4-0.5l0,0
					c8.1-3.8,11.6-13.4,7.9-21.5C433.1,117,427.3,113.5,421.2,113.5z"/>
				<g>
					<g>
						<path class="st5" d="M417.2,136.1c-0.9-0.5-1.7-1.1-2.3-1.8c-0.6-0.7-1.2-1.3-1.5-2c-0.2-0.4-0.2-0.7-0.1-1.1
							c0.1-0.3,0.3-0.5,0.6-0.6c0.3-0.1,0.6-0.1,0.9,0c0.2,0.1,0.4,0.3,0.6,0.5c0.4,0.6,0.9,1.2,1.4,1.8c0.5,0.5,1.2,1,2,1.4
							c0.3,0.1,0.6,0.3,0.9,0.4c0.3,0.1,0.6,0.2,0.8,0.2c0.3,0,0.6,0.1,0.8,0c0.3,0,0.5-0.1,0.7-0.2c0.2-0.1,0.4-0.2,0.6-0.4
							c0.2-0.2,0.3-0.4,0.5-0.6c0.2-0.5,0.2-0.9,0.1-1.4c-0.2-0.5-0.6-1-1.3-1.5l-2.1-1.7c-0.4-0.3-0.7-0.6-1-0.9
							c-0.3-0.2-0.5-0.5-0.8-0.8c-0.3-0.3-0.5-0.6-0.7-0.8c-0.2-0.2-0.3-0.5-0.4-0.8c-0.1-0.3-0.2-0.6-0.2-0.9s0-0.6,0.1-0.9
							c0.1-0.3,0.2-0.7,0.4-1.1c0.2-0.4,0.4-0.7,0.6-0.9c0.2-0.3,0.5-0.5,0.8-0.7c0.3-0.2,0.6-0.3,0.9-0.4c0.3-0.1,0.7-0.2,1-0.2
							c0.4,0,0.7,0,1.1,0c0.4,0,0.8,0.1,1.2,0.2c0.4,0.1,0.8,0.2,1.2,0.4l1.4-2.9c0.1-0.3,0.3-0.5,0.6-0.6c0.3-0.1,0.5-0.1,0.8,0.1
							c0.2,0.1,0.4,0.3,0.5,0.6c0.1,0.3,0.1,0.5,0,0.8l-1.4,2.9c0.5,0.3,0.9,0.6,1.3,1c0.4,0.4,0.7,0.7,1,0.9
							c0.2,0.3,0.5,0.5,0.7,0.8c0.4,0.4,0.4,0.9,0.2,1.3c0,0.1-0.1,0.2-0.2,0.3s-0.2,0.1-0.3,0.2c-0.1,0-0.2,0.1-0.3,0.1
							c-0.1,0-0.2,0-0.3,0c-0.1,0-0.2-0.1-0.4-0.1c-0.1,0-0.1-0.1-0.2-0.1c0,0-0.1-0.1-0.2-0.1c-0.1,0-0.1-0.1-0.2-0.1
							c0,0-0.1-0.1-0.3-0.3c-0.2-0.2-0.3-0.4-0.4-0.4c-0.1-0.1-0.2-0.2-0.5-0.4c-0.2-0.2-0.4-0.4-0.6-0.5s-0.4-0.3-0.7-0.4
							c-0.3-0.2-0.5-0.3-0.8-0.4c-0.6-0.3-1.1-0.4-1.5-0.5c-0.5-0.1-0.9-0.1-1.3,0.1c-0.4,0.1-0.7,0.4-0.9,0.8
							c-0.2,0.5-0.3,1-0.1,1.3c0.2,0.4,0.7,0.9,1.5,1.5l2,1.7c1.3,1.1,2.1,2.1,2.5,3.1c0.4,1,0.3,2-0.3,3.1
							c-0.6,1.3-1.5,2.1-2.8,2.4c-1.2,0.3-2.6,0.2-4.1-0.3l-1.4,2.9c-0.1,0.3-0.3,0.5-0.6,0.5c-0.3,0.1-0.5,0.1-0.8-0.1
							c-0.2-0.1-0.3-0.2-0.4-0.3c-0.1-0.1-0.2-0.3-0.2-0.5c0-0.2,0-0.4,0.1-0.6L417.2,136.1z"/>
					</g>
				</g>
			</g>
		</g>
	</g>
	<g>
		<rect x="493.3" y="315.3" class="st2" width="11" height="78.6"/>
		<polygon class="st0" points="525.9,393.9 524.9,393.9 524.9,294.5 514.8,294.5 514.8,393.9 513.8,393.9 513.8,293.5 525.9,293.5 
					"/>
		<polygon class="st0" points="569.7,393.9 568.7,393.9 568.7,294.5 558.6,294.5 558.6,393.9 557.6,393.9 557.6,293.5 569.7,293.5 
					"/>
		<rect x="578.6" y="318.8" class="st2" width="11" height="75.1"/>
		<rect x="536.9" y="323.5" class="st2" width="11" height="70.4"/>
	</g>
	<g>
		<g>
			<g>
				<path class="st0" d="M231.7,135.5c-2,0-4-0.7-5.5-2c-1.7-1.5-2.8-3.6-3-5.8l-0.7-8.4c-6.3-0.7-12.3-2.6-17.8-5.7l-5.4,6.4
					c-1.5,1.7-3.6,2.8-5.8,3c-2.3,0.2-4.5-0.5-6.2-2c-3.6-3.1-4-8.5-1-12.1l5.4-6.4c-4-4.9-6.9-10.5-8.5-16.6l-8.4,0.7
					c-4.7,0.4-8.9-3.1-9.2-7.9c-0.4-4.7,3.1-8.9,7.9-9.2l8.4-0.7c0.7-6.3,2.6-12.3,5.7-17.8l-6.4-5.4c-1.7-1.5-2.8-3.6-3-5.8
					c-0.2-2.3,0.5-4.5,2-6.2c1.5-1.7,3.6-2.8,5.8-3c2.3-0.2,4.5,0.5,6.2,2l6.4,5.4c4.9-4,10.5-6.9,16.6-8.5l-0.7-8.4
					c-0.4-4.7,3.1-8.9,7.9-9.2c2.3-0.2,4.5,0.5,6.2,2c1.7,1.5,2.8,3.6,3,5.8l0.7,8.4c6.3,0.7,12.3,2.6,17.8,5.7l5.4-6.4
					c1.5-1.7,3.6-2.8,5.8-3c2.3-0.2,4.5,0.5,6.2,2c1.7,1.5,2.8,3.6,3,5.8c0.2,2.3-0.5,4.5-2,6.2l-5.4,6.4c4,4.9,6.9,10.5,8.5,16.6
					l8.4-0.7c4.7-0.4,8.9,3.1,9.2,7.9c0.4,4.7-3.1,8.9-7.9,9.2l-8.4,0.7c-0.7,6.3-2.6,12.3-5.7,17.8l6.4,5.4c3.6,3.1,4,8.5,1,12.1
					c-3.1,3.6-8.5,4-12.1,1l-6.4-5.4c-4.9,4-10.5,6.9-16.6,8.5l0.7,8.4c0.4,4.7-3.1,8.9-7.9,9.2
					C232.2,135.5,231.9,135.5,231.7,135.5z M204.5,112.2l0.4,0.2c5.6,3.3,11.7,5.2,18.2,5.9l0.4,0l0.7,9.2c0.2,2,1.1,3.8,2.6,5.2
					c1.5,1.3,3.5,1.9,5.5,1.8c4.2-0.3,7.3-4,6.9-8.2l-0.7-9.2l0.4-0.1c6.3-1.7,12-4.6,17-8.7l0.3-0.3l7,6c3.2,2.7,8,2.3,10.7-0.9
					c2.7-3.2,2.3-8-0.9-10.7l-7-6l0.2-0.4c3.3-5.6,5.2-11.7,5.9-18.2l0-0.4l9.2-0.7c4.2-0.3,7.3-4,6.9-8.2c-0.3-4.2-4-7.3-8.2-6.9
					l-9.2,0.7l-0.1-0.4c-1.7-6.3-4.6-12-8.7-17l-0.3-0.3l6-7c1.3-1.5,1.9-3.5,1.8-5.5c-0.2-2-1.1-3.8-2.6-5.2
					c-1.5-1.3-3.5-1.9-5.5-1.8c-2,0.2-3.8,1.1-5.2,2.6l-6,7l-0.4-0.2c-5.6-3.3-11.7-5.2-18.2-5.9l-0.4,0l-0.7-9.2
					c-0.2-2-1.1-3.8-2.6-5.2c-1.5-1.3-3.5-1.9-5.5-1.8c-4.2,0.3-7.3,4-6.9,8.2l0.7,9.2l-0.4,0.1c-6.3,1.7-12,4.6-17,8.7l-0.3,0.3
					l-7-6c-1.5-1.3-3.5-1.9-5.5-1.8c-2,0.2-3.8,1.1-5.2,2.6c-1.3,1.5-1.9,3.5-1.8,5.5c0.2,2,1.1,3.8,2.6,5.2l7,6l-0.2,0.4
					c-3.3,5.6-5.2,11.7-5.9,18.2l0,0.4l-9.2,0.7c-4.2,0.3-7.3,4-6.9,8.2c0.3,4.2,4,7.3,8.2,6.9l9.2-0.7l0.1,0.4
					c1.7,6.3,4.6,12,8.7,17l0.3,0.3l-6,7c-2.7,3.2-2.3,8,0.9,10.7c1.5,1.3,3.5,1.9,5.5,1.8c2-0.2,3.8-1.1,5.2-2.6L204.5,112.2z
					 M227.4,106.9c-17.2,0-31.8-13.3-33.2-30.7c-0.7-8.9,2.1-17.5,7.8-24.3c5.8-6.8,13.8-10.9,22.7-11.6c18.4-1.5,34.5,12.2,36,30.6
					c0.7,8.9-2.1,17.5-7.8,24.3c-5.8,6.8-13.8,10.9-22.7,11.6l0-0.5l0,0.5C229.2,106.9,228.3,106.9,227.4,106.9z M227.4,41.2
					c-0.9,0-1.7,0-2.6,0.1c-8.6,0.7-16.5,4.7-22.1,11.3c-5.6,6.6-8.3,15-7.6,23.6c1.4,17.8,17.1,31.1,34.9,29.7l0,0
					c8.6-0.7,16.5-4.7,22.1-11.3c5.6-6.6,8.3-15,7.6-23.6C258.3,54,244.1,41.2,227.4,41.2z"/>
			</g>
		</g>
		<g>
			<g>
				<path class="st6" d="M171.7,94.5l-5.2,2.9c-2.9-3.5-6.4-6.2-10.3-8.1l1.6-5.8c0.8-2.9-0.9-6-3.8-6.8c-2.9-0.8-6,0.9-6.8,3.8
					l-1.6,5.8c-4.3-0.4-8.8,0.1-13.1,1.6l-2.9-5.2c-1.5-2.6-4.8-3.6-7.5-2.1h0c-2.6,1.5-3.6,4.8-2.1,7.5l2.9,5.2
					c-3.5,2.9-6.2,6.4-8.1,10.3l-5.8-1.6c-2.9-0.8-6,0.9-6.8,3.8c-0.8,2.9,0.9,6,3.8,6.8l5.8,1.6c-0.4,4.3,0.1,8.8,1.6,13.1
					l-5.2,2.9c-2.6,1.5-3.6,4.8-2.1,7.5v0c1.5,2.6,4.8,3.6,7.5,2.1l5.2-2.9c2.9,3.5,6.4,6.2,10.3,8.1l-1.6,5.8
					c-0.8,2.9,0.9,6,3.8,6.8c2.9,0.8,6-0.9,6.8-3.8l1.6-5.8c4.3,0.4,8.8-0.1,13.1-1.6l2.9,5.2c1.5,2.6,4.8,3.6,7.5,2.1h0
					c2.6-1.5,3.6-4.8,2.1-7.5l-2.9-5.2c3.5-2.9,6.2-6.4,8.1-10.3l5.8,1.6c2.9,0.8,6-0.9,6.8-3.8c0.8-2.9-0.9-6-3.8-6.8l-5.8-1.6
					c0.4-4.3-0.1-8.8-1.6-13.1l5.2-2.9c2.6-1.5,3.6-4.8,2.1-7.5l0,0C177.7,93.9,174.4,93,171.7,94.5z M153.7,136.7
					c-10.8,6.1-24.4,2.2-30.5-8.5c-6.1-10.8-2.2-24.4,8.5-30.5c10.8-6.1,24.4-2.2,30.5,8.5C168.3,116.9,164.4,130.6,153.7,136.7z"/>
			</g>
		</g>
	</g>
	<g>
		<path class="st6" d="M39.6,354.7c0,1.2-1,2.2-2.2,2.2s-2.2-1-2.2-2.2c0-1.2,1-2.2,2.2-2.2S39.6,353.5,39.6,354.7z"/>
		<path class="st6" d="M140.9,215.5c0,1.2-1,2.2-2.2,2.2c-1.2,0-2.2-1-2.2-2.2c0-1.2,1-2.2,2.2-2.2
			C139.9,213.3,140.9,214.3,140.9,215.5z"/>
		<path class="st6" d="M84.9,124.9c0,1.2-1,2.2-2.2,2.2c-1.2,0-2.2-1-2.2-2.2c0-1.2,1-2.2,2.2-2.2C84,122.7,84.9,123.7,84.9,124.9z"
			/>
		<path class="st0" d="M102.4,361.6c0,0.6-0.5,1.1-1.1,1.1c-0.6,0-1.1-0.5-1.1-1.1c0-0.6,0.5-1.1,1.1-1.1
			C101.9,360.5,102.4,361,102.4,361.6z"/>
		<path class="st0" d="M100.3,62.8c0,0.6-0.5,1.1-1.1,1.1s-1.1-0.5-1.1-1.1c0-0.6,0.5-1.1,1.1-1.1S100.3,62.2,100.3,62.8z"/>
		<path class="st5" d="M75,378.5c0,0.6-0.5,1.1-1.1,1.1c-0.6,0-1.1-0.5-1.1-1.1c0-0.6,0.5-1.1,1.1-1.1C74.5,377.4,75,377.9,75,378.5
			z"/>
		<path class="st5" d="M29.4,331.4c0,0.6-0.5,1.1-1.1,1.1c-0.6,0-1.1-0.5-1.1-1.1c0-0.6,0.5-1.1,1.1-1.1
			C29,330.3,29.4,330.8,29.4,331.4z"/>
		<path class="st5" d="M160.4,385.3c0,0.6-0.5,1.1-1.1,1.1c-0.6,0-1.1-0.5-1.1-1.1s0.5-1.1,1.1-1.1
			C159.9,384.2,160.4,384.7,160.4,385.3z"/>
		<path class="st5" d="M126.4,232.5c0,0.6-0.5,1.1-1.1,1.1s-1.1-0.5-1.1-1.1c0-0.6,0.5-1.1,1.1-1.1S126.4,231.9,126.4,232.5z"/>
		<path class="st5" d="M86.1,109.6c0,0.6-0.5,1.1-1.1,1.1c-0.6,0-1.1-0.5-1.1-1.1c0-0.6,0.5-1.1,1.1-1.1
			C85.7,108.6,86.1,109,86.1,109.6z"/>
		<path class="st5" d="M173.9,55.4c0,1.3-1.1,2.4-2.4,2.4c-1.3,0-2.4-1.1-2.4-2.4s1.1-2.4,2.4-2.4C172.8,53,173.9,54,173.9,55.4z"/>
		<polygon class="st5" points="137.1,316.5 137.4,323.4 132.8,318.1 126.3,317.9 130.9,313 130.6,305.8 135.4,311.3 142.1,312 		"/>
		<polygon class="st5" points="98.9,168 99.2,175 94.6,169.6 88.1,169.5 92.7,164.5 92.4,157.4 97.2,162.8 103.9,163.5 		"/>
		<polygon class="st0" points="20.5,294.8 20.6,300.3 17,296 11.9,295.7 15.6,291.8 15.6,286.1 19.3,290.6 24.6,291.3 		"/>
		<polygon class="st0" points="148.4,46.6 148.5,52.1 144.9,47.7 139.8,47.4 143.5,43.6 143.5,37.9 147.2,42.3 152.5,43.1 		"/>
		<path class="st6" d="M44.7,260.9c0,0.6-0.5,1.1-1.1,1.1c-0.6,0-1.1-0.5-1.1-1.1s0.5-1.1,1.1-1.1C44.2,259.8,44.7,260.3,44.7,260.9
			z"/>
		<path class="st6" d="M176.3,12.7c0,0.6-0.5,1.1-1.1,1.1c-0.6,0-1.1-0.5-1.1-1.1c0-0.6,0.5-1.1,1.1-1.1
			C175.8,11.6,176.3,12.1,176.3,12.7z"/>
		<path class="st6" d="M170.4,174.2c0,0.6-0.5,1.1-1.1,1.1c-0.6,0-1.1-0.5-1.1-1.1c0-0.6,0.5-1.1,1.1-1.1
			C169.9,173.1,170.4,173.6,170.4,174.2z"/>
		<path class="st6" d="M106.5,259.3c0,1.2-1,2.2-2.2,2.2c-1.2,0-2.2-1-2.2-2.2c0-1.2,1-2.2,2.2-2.2
			C105.6,257.1,106.5,258.1,106.5,259.3z"/>
		<g>
			<path class="st6" d="M390.2,105.7c0,1.2-1,2.2-2.2,2.2c-1.2,0-2.2-1-2.2-2.2c0-1.2,1-2.2,2.2-2.2
				C389.2,103.5,390.2,104.5,390.2,105.7z"/>
			<path class="st6" d="M530.5,89.8c0,1.2-1,2.2-2.2,2.2c-1.2,0-2.2-1-2.2-2.2c0-1.2,1-2.2,2.2-2.2
				C529.5,87.6,530.5,88.6,530.5,89.8z"/>
			<path class="st0" d="M447.8,107c0,0.6-0.5,1.1-1.1,1.1s-1.1-0.5-1.1-1.1c0-0.6,0.5-1.1,1.1-1.1S447.8,106.4,447.8,107z"/>
			<path class="st5" d="M456.1,137.4c0,0.6-0.5,1.1-1.1,1.1c-0.6,0-1.1-0.5-1.1-1.1c0-0.6,0.5-1.1,1.1-1.1
				C455.6,136.3,456.1,136.8,456.1,137.4z"/>
			<path class="st5" d="M380.1,82.5c0,0.6-0.5,1.1-1.1,1.1c-0.6,0-1.1-0.5-1.1-1.1c0-0.6,0.5-1.1,1.1-1.1
				C379.6,81.4,380.1,81.9,380.1,82.5z"/>
			<path class="st5" d="M526.3,136.6c0,0.6-0.5,1.1-1.1,1.1c-0.6,0-1.1-0.5-1.1-1.1c0-0.6,0.5-1.1,1.1-1.1
				C525.9,135.6,526.3,136,526.3,136.6z"/>
			<polygon class="st0" points="486.9,71.8 481.8,78.6 481.6,69.9 475.5,64.8 483.7,63.6 489,56.6 489.3,65.5 495.1,71.4 			"/>
			<polygon class="st0" points="368,45.3 364.6,49.7 364.5,44.1 360.6,40.7 365.9,40 369.3,35.4 369.6,41.2 373.3,45 			"/>
			<polygon class="st5" points="420.3,171.6 417.7,175 417.6,170.6 414.5,168 418.7,167.4 421.4,163.9 421.5,168.4 424.5,171.4 			
				"/>
			<polygon class="st5" points="520.8,160.2 518.3,163.6 518.2,159.3 515.1,156.6 519.2,156.1 521.9,152.5 522.1,157 525,160 			"/>
			<path class="st6" d="M395.3,10.9c0,0.6-0.5,1.1-1.1,1.1s-1.1-0.5-1.1-1.1c0-0.6,0.5-1.1,1.1-1.1S395.3,10.3,395.3,10.9z"/>
			<path class="st6" d="M472.1,22c0,1.2-1,2.2-2.2,2.2c-1.2,0-2.2-1-2.2-2.2c0-1.2,1-2.2,2.2-2.2C471.2,19.8,472.1,20.8,472.1,22z"
				/>
		</g>
		<g>
			<path class="st6" d="M610.5,258.6c0,1.2-1,2.2-2.2,2.2c-1.2,0-2.2-1-2.2-2.2c0-1.2,1-2.2,2.2-2.2
				C609.5,256.4,610.5,257.4,610.5,258.6z"/>
			<path class="st0" d="M599.9,296c0,0.6-0.5,1.1-1.1,1.1c-0.6,0-1.1-0.5-1.1-1.1c0-0.6,0.5-1.1,1.1-1.1
				C599.4,294.9,599.9,295.4,599.9,296z"/>
			<path class="st0" d="M540.8,307c0,0.6-0.5,1.1-1.1,1.1c-0.6,0-1.1-0.5-1.1-1.1c0-0.6,0.5-1.1,1.1-1.1
				C540.3,305.9,540.8,306.4,540.8,307z"/>
			<path class="st5" d="M604.4,241.4c0,0.6-0.5,1.1-1.1,1.1c-0.6,0-1.1-0.5-1.1-1.1s0.5-1.1,1.1-1.1
				C603.9,240.3,604.4,240.8,604.4,241.4z"/>
			<path class="st5" d="M607.1,136.3c0,0.6-0.5,1.1-1.1,1.1c-0.6,0-1.1-0.5-1.1-1.1c0-0.6,0.5-1.1,1.1-1.1
				C606.7,135.2,607.1,135.7,607.1,136.3z"/>
			<polygon class="st0" points="578,204.2 576.3,206.5 576.3,203.6 574.3,201.9 577,201.5 578.7,199.2 578.8,202.1 580.8,204.1 			
				"/>
			<polygon class="st6" points="614.1,351.6 611.5,355 611.4,350.6 608.4,348 612.5,347.4 615.2,343.9 615.4,348.4 618.3,351.4 			
				"/>
			<path class="st6" d="M607,167.6c0,0.6-0.5,1.1-1.1,1.1c-0.6,0-1.1-0.5-1.1-1.1c0-0.6,0.5-1.1,1.1-1.1
				C606.5,166.5,607,167,607,167.6z"/>
		</g>
	</g>
</g>
<g>
	<g>
		<g>
			<g>
				<path class="st7" d="M197.3,105.9c-0.1,0-0.1,0.1-0.2,0.1C197.2,106,197.2,105.9,197.3,105.9L197.3,105.9z"/>
				<g>
					<path class="st8" d="M381.4,152.6c0.1-11.8-4.2-22.7-11.6-31.7c-1.7-2.4-3.2-4.5-4.7-6.4c-3.5-4.5-8-9.2-10.3-14.2
						c7.7-3.3,12.5-7.1,12.5-7.1c-4.1-41.9-27.3-55.2-67.7-45.7c-7.2-3.7-30-13.6-58.7,8.1c-5.5,4.1-7.3,9.2-10.1,14.4
						c-7.2,13.2-17.2,22.1-31.2,30.9c-0.1,0-0.1,0.1-0.2,0.1l-1.9,1.2c-25.9,16.3-29.2,49.9-13.8,67.1l4.4,5
						c0.7,0.8,1.4,1.5,2.1,2.2c2.7,2.6,3.8,6.1,2.8,9.5c-1.8,6.2-2.3,12.9-1.2,19.8c0.8,4.8,2.3,9.5,4.5,13.8
						c0.7,1.5,1.5,2.9,2.4,4.3c1.3,2.1,2.7,4.1,4.3,6c1.6,1.9,3.3,3.7,5.2,5.5c1.8,1.7,3.8,3.4,5.9,4.9c2.1,1.5,4.3,2.9,6.6,4.2
						c0.8,0.4,1.5,0.8,2.3,1.3c3.1,1.6,6.5,3,9.9,4.2c2.6,0.9,5.3,1.6,8,2.2c2.7,0.6,5.5,1,8.4,1.3c0.9,0.1,1.9,0.2,2.9,0.2
						c6.6,0.4,13.1-0.1,19.2-1.3c2.4-0.5,4.8-1.1,7.2-1.8c2.3-0.7,4.6-1.5,6.8-2.4c7.7-3.2,14.5-7.7,20.1-13.1
						c1-0.9,1.9-1.8,2.9-2.7c2.9-2.7,5.9-5.4,9-8c6.2-5.2,12.6-10.2,19.2-15c2.2-1.6,4.4-3.2,6.7-4.8c3.4-2.4,6.7-4.7,10.1-7
						c1.1-0.8,2.3-1.5,3.4-2.3c0.7-0.5,1.4-0.9,2-1.4c0.1-0.1,0.3-0.2,0.4-0.3c0.6-0.5,1.3-0.9,1.9-1.4c0.1-0.1,0.2-0.2,0.3-0.3
						c0.6-0.5,1.2-1,1.8-1.5c0,0,0.1-0.1,0.1-0.1c0.6-0.5,1.2-1.1,1.8-1.6c0.1-0.1,0.2-0.2,0.3-0.3c0.6-0.6,1.1-1.1,1.7-1.7
						c0-0.1,0.1-0.1,0.1-0.2c0.6-0.6,1.1-1.2,1.6-1.8c0,0,0.1-0.1,0.1-0.1c0.5-0.6,1-1.2,1.6-1.9c0.1-0.1,0.1-0.2,0.2-0.2
						c0.4-0.6,0.9-1.1,1.3-1.7c0.1-0.1,0.1-0.1,0.2-0.2c0,0,0,0,0,0C377.9,172.4,381.3,162.9,381.4,152.6z"/>
					<path class="st9" d="M356.8,74.8c-0.5,0-0.9-0.3-1-0.8c-3.8-20.3-30.7-22-31-22c-0.6,0-1-0.5-0.9-1.1c0-0.6,0.5-1,1.1-0.9
						c0.3,0,28.7,1.8,32.8,23.7c0.1,0.5-0.3,1.1-0.8,1.2C356.9,74.8,356.8,74.8,356.8,74.8z"/>
					<path class="st7" d="M367,186.6c0-0.1,0.1-0.1,0.1-0.2c0.6-0.6,1.1-1.2,1.6-1.8c0,0,0.1-0.1,0.1-0.1c0.5-0.6,1-1.2,1.6-1.9
						c0.1-0.1,0.1-0.2,0.2-0.2c0.5-0.6,1-1.3,1.5-2c-17.7,11.8-34.8,24.2-49.6,38.6c-12.8,12.4-32,19.8-53.3,18.6
						c-30.6-1.7-56.1-22-60.2-47.7c-1.1-6.9-0.6-13.6,1.2-19.8c0.9-3.4-0.1-6.8-2.8-9.5c-0.7-0.7-1.4-1.5-2.1-2.2l-4.4-5
						c-11.6-13-12.6-35.4-1.1-52.6c-0.1,0-0.1,0.1-0.2,0.1l-1.9,1.2c-25.9,16.3-29.2,49.9-13.8,67.1l4.4,5c0.7,0.8,1.4,1.5,2.1,2.2
						c2.7,2.6,3.8,6.1,2.8,9.5c-1.8,6.2-2.3,12.9-1.2,19.8c0.8,4.8,2.3,9.5,4.5,13.8c0.7,1.5,1.5,2.9,2.4,4.3c1.3,2.1,2.7,4.1,4.3,6
						c1.6,1.9,3.3,3.7,5.2,5.5c1.8,1.7,3.8,3.4,5.9,4.9c2.1,1.5,4.3,2.9,6.6,4.2c0.8,0.4,1.5,0.8,2.3,1.3c3.1,1.6,6.5,3,9.9,4.2
						c2.6,0.9,5.3,1.6,8,2.2c2.7,0.6,5.5,1,8.4,1.3c0.9,0.1,1.9,0.2,2.9,0.2c6.6,0.4,13.1-0.1,19.2-1.3c2.4-0.5,4.8-1.1,7.2-1.8
						c2.3-0.7,4.6-1.5,6.8-2.4c7.7-3.2,14.5-7.7,20.1-13.1c1-0.9,1.9-1.8,2.9-2.7c2.9-2.7,5.9-5.4,9-8c6.2-5.2,12.6-10.2,19.2-15
						c2.2-1.6,4.4-3.2,6.7-4.8c3.4-2.4,6.7-4.7,10.1-7c1.1-0.8,2.3-1.5,3.4-2.3c0.7-0.5,1.4-0.9,2-1.4c0.1-0.1,0.3-0.2,0.4-0.3
						c0.6-0.5,1.3-0.9,1.9-1.4c0.1-0.1,0.2-0.2,0.3-0.3c0.6-0.5,1.2-1,1.8-1.5c0,0,0.1-0.1,0.1-0.1c0.6-0.5,1.2-1.1,1.8-1.6
						c0.1-0.1,0.2-0.2,0.3-0.3C365.9,187.8,366.4,187.2,367,186.6z"/>
				</g>
				<g>
					<g>
						<g>
							<path class="st10" d="M293.4,86c-2.8,17.4-12.7,32.3-21.1,32.7l-6.9-2.4l0,0.5l-6.8-0.6c-9.2-0.8-17.4,6-18.2,15.1l0,0.4
								c-0.8,9.2,6,17.4,15.1,18.2l6.7,0.6l-8.3,52.5c-1.8,15,11.9,25.4,27.2,27.3l0.6,0.1c15.3,1.8,29.3-9,31.1-24l1.6-13.6
								c18.1-2.3,32.3-17.6,32.8-36.4l1.3-53.5c0,0,0-0.1,0-0.1C333.8,107.3,312.7,107.8,293.4,86z"/>
						</g>
					</g>
					<path class="st11" d="M314.4,193.2c0,0-32.8-2.4-36.9-14.7c-4.1-12.3,0,0,0,0s-3.6,17.5,34.6,31.5L314.4,193.2z"/>
					<g>
						<path class="st11" d="M254.7,139.4c-0.7,0-1.5-0.4-1.8-1.1c-0.5-1-0.1-2.2,0.9-2.7l3.8-1.8l-3.6-5.3c-0.6-0.9-0.4-2.2,0.5-2.8
							c0.9-0.6,2.2-0.4,2.8,0.5l5,7.2c0.3,0.5,0.4,1.1,0.3,1.6c-0.1,0.6-0.5,1-1.1,1.3l-5.9,2.8C255.3,139.3,255,139.4,254.7,139.4z
							"/>
						<path class="st5" d="M246.4,147.9c-0.6,3.4,1.6,6.7,5,7.4c3.4,0.7,6.7-1.6,7.4-5c0.6-3.4-1.6-6.7-5-7.4
							C250.4,142.3,247.1,144.5,246.4,147.9z"/>
						<g>
							<path class="st8" d="M342,137.7c-0.2,1.8-1.9,3-3.7,2.8c-1.8-0.2-3-1.9-2.8-3.7c0.2-1.8,1.9-3,3.7-2.8
								C341,134.3,342.3,135.9,342,137.7z"/>
							<g class="st12">
								
									<image style="overflow:visible;" width="362" height="342" xlink:href="84A0E067.png"  transform="matrix(0.24 0 0 0.24 295.312 105.2017)">
								</image>
							</g>
							<g class="st12">
								
									<image style="overflow:visible;" width="388" height="345" xlink:href="84A0E065.png"  transform="matrix(0.24 0 0 0.24 245.392 97.7617)">
								</image>
							</g>
							<path class="st5" d="M302.9,145.6c-0.6,0-1.1,0-1.7-0.1c-8.3-0.9-14.4-8.4-13.5-16.8c0.9-8.3,8.4-14.4,16.8-13.5
								c4,0.4,7.7,2.4,10.2,5.6c2.5,3.2,3.7,7.1,3.3,11.2l0,0c-0.4,4-2.4,7.7-5.6,10.2C309.7,144.5,306.3,145.6,302.9,145.6z
								 M302.8,118.2c-6.2,0-11.5,4.6-12.1,10.9c-0.7,6.7,4.1,12.7,10.8,13.5c3.2,0.4,6.4-0.6,9-2.6c2.5-2,4.1-5,4.5-8.2
								c0.4-3.2-0.6-6.4-2.6-9c-2-2.5-5-4.1-8.2-4.5C303.7,118.2,303.3,118.2,302.8,118.2z"/>
							<path class="st8" d="M309.1,132.7c-0.3,0-0.6-0.1-0.8-0.4c-0.2-0.2-3.9-4.5-8.5-0.9c-0.4,0.3-1.1,0.3-1.4-0.2
								c-0.3-0.4-0.3-1.1,0.2-1.4c4.9-3.8,9.5-0.9,11.2,1.2c0.4,0.4,0.3,1.1-0.1,1.4C309.6,132.6,309.4,132.7,309.1,132.7z"/>
							<path class="st5" d="M340.5,149.3c-0.5,0-1.1,0-1.7-0.1c-4-0.4-7.7-2.4-10.2-5.6c-2.5-3.2-3.7-7.1-3.3-11.2
								c0.4-4,2.4-7.7,5.6-10.2c3.2-2.5,7.1-3.7,11.2-3.3c8.3,0.9,14.4,8.4,13.5,16.8l0,0C354.8,143.5,348.1,149.3,340.5,149.3z
								 M340.4,121.8c-2.8,0-5.4,0.9-7.6,2.7c-2.5,2-4.1,5-4.5,8.2c-0.4,3.2,0.6,6.4,2.6,9c2,2.5,5,4.1,8.2,4.5
								c6.7,0.7,12.7-4.1,13.5-10.8c0.7-6.7-4.1-12.7-10.8-13.5C341.3,121.9,340.9,121.8,340.4,121.8z"/>
							<g>
								<path class="st10" d="M322,123.1l-1,10.7c-0.1,1.3,0.8,2.5,2.2,2.6l2.4,0.2c1.8,0.2,3.1,1.8,3,3.6l0,0
									c-0.4,4.5-4.4,7.7-8.8,7.3l-3.7-0.4"/>
								<path class="st11" d="M320.5,149.1c-0.3,0-0.6,0-0.9,0l-3.7-0.4c-0.8-0.1-1.4-0.8-1.4-1.6c0.1-0.8,0.8-1.4,1.6-1.4l3.7,0.4
									c1.8,0.2,3.5-0.4,4.8-1.5c1.4-1.1,2.2-2.7,2.4-4.5c0-0.5-0.1-0.9-0.4-1.3c-0.3-0.4-0.7-0.6-1.2-0.6l-2.4-0.2
									c-1-0.1-2-0.6-2.6-1.4c-0.7-0.8-1-1.8-0.9-2.9l1-10.7c0.1-0.8,0.8-1.4,1.6-1.4c0.8,0.1,1.4,0.8,1.4,1.6l-1,10.7
									c0,0.2,0,0.5,0.2,0.7c0.2,0.2,0.4,0.3,0.6,0.3l2.4,0.2c1.3,0.1,2.4,0.7,3.2,1.7c0.8,1,1.2,2.2,1.1,3.5
									C329.5,145.4,325.3,149.1,320.5,149.1z"/>
							</g>
							<path class="st5" d="M326.1,132.2c-3.6-3.6-8.6-1-8.8-0.9l-1.4-2.6c2.5-1.4,8.2-2.8,12.4,1.4L326.1,132.2z"/>
							<path class="st5" d="M289.4,127.3c-0.2,0-0.4,0-0.6-0.1l-24.1-10.5c-0.8-0.3-1.1-1.2-0.8-2c0.3-0.8,1.2-1.1,2-0.8l24.1,10.5
								c0.8,0.3,1.1,1.2,0.8,2C290.5,126.9,290,127.3,289.4,127.3z"/>
							<g>
								<g>
									<path class="st11" d="M318.8,176.9c-0.1,0-0.3,0-0.4-0.1c-0.1-0.1-3.6-2-6.5,0.6c-0.3,0.2-0.7,0.2-1-0.1
										c-0.2-0.3-0.2-0.7,0.1-1c3.7-3.2,8-0.7,8-0.7c0.3,0.2,0.4,0.6,0.2,0.9C319.1,176.7,319,176.9,318.8,176.9z"/>
								</g>
							</g>
							<g>
								<g>
									<g>
										<g>
											<g>
												<g>
													<path class="st8" d="M296.8,113.2c1.2,0.4,2.8,0.1,4.3-0.1c1.5-0.2,3-0.4,4.4-0.5c1.3-0.1,2.9-0.2,4.4-0.3
														c1.5-0.1,3.1-0.1,4.2-0.7c1.1-0.6,1.4-2-0.1-3.6c-1.4-1.5-4.9-3-9.3-2.6c-4.4,0.4-7.5,2.5-8.6,4.3
														C294.9,111.5,295.6,112.9,296.8,113.2z"/>
												</g>
											</g>
										</g>
										<g>
											<g>
												<g>
													<path class="st8" d="M335.7,121.3c1-0.2,2.2,0.2,3.3,0.6c1.1,0.4,2.3,0.7,3.3,1c1,0.3,2.2,0.5,3.4,0.7
														c1.2,0.2,2.4,0.4,3.2,1.1c0.8,0.6,0.9,1.7-0.5,2.8c-1.3,1-4.2,1.8-7.6,0.9c-3.4-0.9-5.5-2.9-6.1-4.4
														C334.1,122.4,334.7,121.4,335.7,121.3z"/>
												</g>
											</g>
										</g>
									</g>
								</g>
							</g>
							<path class="st11" d="M314.2,160.9c-0.1,0-0.2,0-0.3,0l-9.2-1.6c-3.7-0.7-6.2-4.1-5.8-7.8l0.2-1.3c0.1-0.8,0.9-1.4,1.7-1.3
								c0.8,0.1,1.4,0.8,1.3,1.7l-0.2,1.3c-0.3,2.1,1.2,4.1,3.3,4.5l9.2,1.6c0.8,0.1,1.4,0.9,1.2,1.7
								C315.5,160.4,314.9,160.9,314.2,160.9z"/>
						</g>
					</g>
				</g>
			</g>
			<path class="st13" d="M254.8,131.9"/>
			<g>
				<g>
					<g>
						<path class="st14" d="M362,245.7c-3.1-14.9-19.3-27.6-33.7-32.7l-14.3-4.9l-62.6-5.3l-29.8,5.1c-20.6,3.6-39.3,14.8-51.5,31.8
							c-9.8,13.6-17.3,33-16.5,60.2c0,1.5,1.1,2.7,2.6,3l52.3,9.1l1.8,82.1h130.7C340.9,394.1,372.3,295.9,362,245.7z"/>
						<path class="st15" d="M362,245.7c-3.1-14.9-19.3-27.6-33.7-32.7l-14.3-4.9l-62.6-5.3l-6.9,1.2l48.5,4.1l14.3,4.9
							c14.4,5.1,30.6,17.7,33.7,32.7c10.3,50.2-21.1,148.4-21.1,148.4h21C340.9,394.1,372.3,295.9,362,245.7z"/>
						<g>
							<path class="st16" d="M230.2,300.4c-0.1,0-0.2,0-0.3,0l-72.6-12.5c-0.8-0.1-1.4-0.9-1.2-1.7c0.1-0.8,0.9-1.4,1.7-1.2
								l72.6,12.5c0.8,0.1,1.4,0.9,1.2,1.7C231.6,299.9,231,300.4,230.2,300.4z"/>
							<path class="st16" d="M226.6,316c-0.2,0-0.4,0-0.6,0l-3.6-0.4c-0.8-0.1-1.4-0.9-1.3-1.7c0.1-0.8,0.9-1.4,1.7-1.3l3.6,0.4
								c0.6,0.1,1.2-0.1,1.6-0.5c0.5-0.4,0.7-0.9,0.7-1.5l1.2-35.2c0-0.8,0.7-1.5,1.5-1.5c0.8,0,1.5,0.7,1.5,1.5l-1.2,35.2
								c0,1.4-0.7,2.8-1.8,3.7C229,315.6,227.8,316,226.6,316z"/>
							<path class="st16" d="M163.4,302.4c-0.1,0-0.1,0-0.2,0c-0.8-0.1-1.4-0.8-1.3-1.7l1.5-12.6c0.1-0.8,0.8-1.4,1.7-1.3
								c0.8,0.1,1.4,0.8,1.3,1.7l-1.5,12.6C164.8,301.8,164.2,302.4,163.4,302.4z"/>
							<path class="st16" d="M176.2,304.1c-0.1,0-0.1,0-0.2,0c-0.8-0.1-1.4-0.8-1.3-1.7l1.5-12.6c0.1-0.8,0.8-1.4,1.7-1.3
								c0.8,0.1,1.4,0.8,1.3,1.7l-1.5,12.6C177.6,303.5,176.9,304.1,176.2,304.1z"/>
							<path class="st16" d="M189,306.9c-0.1,0-0.1,0-0.2,0c-0.8-0.1-1.4-0.8-1.3-1.7l1.5-12.6c0.1-0.8,0.8-1.4,1.7-1.3
								c0.8,0.1,1.4,0.8,1.3,1.7l-1.5,12.6C190.4,306.3,189.8,306.9,189,306.9z"/>
							<path class="st16" d="M201.9,309.3c-0.1,0-0.1,0-0.2,0c-0.8-0.1-1.4-0.8-1.3-1.7l1.5-12.6c0.1-0.8,0.8-1.4,1.7-1.3
								c0.8,0.1,1.4,0.8,1.3,1.7l-1.5,12.6C203.3,308.8,202.7,309.3,201.9,309.3z"/>
							<path class="st16" d="M216.2,311.9c-0.1,0-0.1,0-0.2,0c-0.8-0.1-1.4-0.8-1.3-1.7l1.5-12.6c0.1-0.8,0.8-1.4,1.7-1.3
								c0.8,0.1,1.4,0.8,1.3,1.7l-1.5,12.6C217.6,311.3,216.9,311.9,216.2,311.9z"/>
						</g>
					</g>
					<path class="st5" d="M318.1,201.7c0,0-15.6,1.1-16.4,0.8l-40.2-16.1c-3.2-1.3-6.8,0.4-7.7,3.7l-4.2,14.4
						c-0.7,2.5,0.3,5.1,2.5,6.5l33.1,20.7c3,1.9,6.9,0.6,8.3-2.6l8.3-19.4c0.2-0.4,0.3-0.7,0.3-1.1c0.1-0.5,0.1-1,0.1-1.4l10.8,17.5
						c4.2,6.8,14.7,4.2,15.3-3.7l0.6-8.4C329.4,206.2,324.2,201.1,318.1,201.7z"/>
				</g>
				<g>
					<g>
						<path class="st8" d="M289.6,244.4l-1.3-1.8c-2.3-3.1-1.6-7.5,1.5-9.8l43.5-31.9c3.1-2.3,7.5-1.6,9.8,1.5l1.3,1.8
							c2.3,3.1,1.6,7.5-1.5,9.8l-43.5,31.9C296.3,248.2,291.9,247.5,289.6,244.4z"/>
						<path class="st2" d="M334.3,219.8l-9.4-12.9c-1-1.3-0.7-3.1,0.6-4.1l6-4.4c1.3-1,3.1-0.7,4.1,0.6l9.4,12.9
							c1,1.3,0.7,3.1-0.6,4.1l-6,4.4C337.1,221.3,335.3,221.1,334.3,219.8z"/>
						<g>
							<path class="st4" d="M403.5,159.5c-13.5-18.4-39.3-22.4-57.7-8.9c-18.4,13.5-22.4,39.3-8.9,57.7
								c13.5,18.4,39.3,22.4,57.7,8.9C413,203.7,417,177.9,403.5,159.5z M387.9,208c-13.3,9.8-32.1,6.9-41.9-6.4
								c-9.8-13.3-6.9-32.1,6.4-41.9c13.3-9.8,32.1-6.9,41.9,6.4C404.2,179.5,401.3,198.3,387.9,208z"/>
							
								<ellipse transform="matrix(0.913 -0.4079 0.4079 0.913 -42.8071 167.0128)" class="st17" cx="370.2" cy="183.9" rx="29.9" ry="29.9"/>
						</g>
						<path class="st17" d="M367.5,171.2c-3.3,2.4-8,1.7-10.5-1.6c-2.4-3.3-1.7-8,1.6-10.5c3.3-2.4,8-1.7,10.5,1.6
							C371.5,164.1,370.8,168.8,367.5,171.2z"/>
					</g>
					<g>
						<g>
							<g>
								<path class="st10" d="M322.3,218.5c-3.7-0.6-7-1.1-10.2-1.6c2.8-2.3,5.7-4.7,7.5-7.9c0.6-1,1.1-2.3,0.6-3.3
									c-0.4-0.8-1.2-1.4-2.1-1.6c-0.9-0.2-1.8-0.1-2.7,0c-8.4,1-31.9,8.4-31.9,8.4c-14.8,6.3-28,20-27,31c0,0.2,0.1,0.3,0.1,0.5
									l-40,69.2l-59.2-10.3l2.9,46.6c1.5,28.1,19.3,53.4,47.2,49.6c22-1.9,35.2-6.6,45.1-26.2l45.1-111.2l13.2,1.1
									c6,0.8,11.6-4.6,8.1-7.5c4.4,1.8,9.8,2.2,11.4-3.4c1.3-3-0.4-4.8-2.7-6.2c4,1.5,8.2,2.3,10-2.3c2.6-4.6-0.8-7.4-4.6-9.2
									c2.9,0.7,5.8,0.5,7-2.8C343,221.5,330,220.2,322.3,218.5z M321.3,243.1c0.5,0.2,1.1,0.4,1.8,0.7
									C322.5,243.5,321.8,243.3,321.3,243.1z"/>
								<path class="st18" d="M257.8,246c-0.6-0.6-0.9-1.3-1.1-2l-8.3,14.3l12.3-9.3C259.5,247.7,258.5,246.7,257.8,246z"/>
								<polygon class="st18" points="295.9,261.6 293.8,271.6 297.8,261.7 296.6,261.6 								"/>
								<path class="st18" d="M312.1,216.9l-17.8-1.5c0,0,19.6-3.5,22.8-3L312.1,216.9z"/>
							</g>
							<path class="st11" d="M334.7,235.7c-0.1,0-0.3,0-0.4-0.1c-1.1-0.5-7.7-1.7-11.7-2.3c-0.5-0.1-0.9-0.6-0.8-1.1
								c0.1-0.5,0.6-0.9,1.1-0.8c1.8,0.3,10.6,1.7,12.2,2.5c0.5,0.2,0.7,0.8,0.5,1.3C335.4,235.5,335.1,235.7,334.7,235.7z"/>
							<path class="st11" d="M328.6,247c-0.1,0-0.1,0-0.2,0l-9.6-1.7c-0.5-0.1-0.9-0.6-0.8-1.2c0.1-0.5,0.6-0.9,1.2-0.8l9.6,1.7
								c0.5,0.1,0.9,0.6,0.8,1.2C329.5,246.7,329.1,247,328.6,247z"/>
							<path class="st11" d="M319.1,256.3c-0.1,0-0.1,0-0.2,0l-5.1-1c-0.5-0.1-0.9-0.6-0.8-1.2c0.1-0.5,0.6-0.9,1.2-0.8l5.1,1
								c0.5,0.1,0.9,0.6,0.8,1.2C320,256,319.6,256.3,319.1,256.3z"/>
						</g>
						<polyline class="st11" points="216.7,313.2 197.1,347.4 204.8,311.1 215.6,313.2 						"/>
					</g>
				</g>
			</g>
		</g>
	</g>
	<g>
		<g>
			<g>
				<path class="st19" d="M381.9,193.9h1.7h1.7c3.5,0,6.8,0.6,9.9,1.8h78.7V394l-120.6-0.2V281.1v-45.6v-12.9
					C353.3,206.8,366.1,193.9,381.9,193.9z"/>
				<path class="st6" d="M384.3,193.9L384.3,193.9c15.4,0,31.4,7.6,34.7,29l0.1,17c0,0.4-0.1,0.7-0.1,1.1l0.1,0.3l0.2,27.5
					c1.1,8.2,7.7,14.9,16.5,17.3c-0.6,0.4-1.6,0.6-3,0.7c-13.2,1.4-24.7-8.5-24.7-20.7v-40.2c0-15.9-12.7-29.1-29.2-31.5
					C380.6,194.1,382.4,193.9,384.3,193.9z"/>
				<path class="st20" d="M479.6,193.9c13.7,0,24.8,11.1,24.8,24.8v32.5h34.4v35.6H434.7c-0.5,0-0.9,0-1.4-0.1c0,0,0,0,0,0
					c0,0,0,0-0.1,0c-0.5,0-1-0.1-1.6-0.2c-0.1,0-0.3,0-0.4-0.1c-0.4-0.1-0.9-0.2-1.3-0.3c-0.2,0-0.4-0.1-0.6-0.2
					c-0.4-0.1-0.8-0.2-1.1-0.3c-0.3-0.1-0.5-0.2-0.8-0.3c-0.3-0.1-0.6-0.2-0.9-0.4c-0.4-0.2-0.8-0.4-1.1-0.5
					c-0.2-0.1-0.4-0.2-0.5-0.3c-1.1-0.6-2.2-1.3-3.2-2.2c-0.1-0.1-0.1-0.1-0.2-0.2c-0.4-0.4-0.8-0.7-1.2-1.1
					c-0.1-0.1-0.2-0.2-0.3-0.3c-0.4-0.4-0.7-0.7-1-1.1c-0.1-0.1-0.2-0.2-0.3-0.3c-0.3-0.4-0.6-0.8-0.9-1.2c-0.1-0.1-0.2-0.3-0.3-0.4
					c-0.3-0.4-0.5-0.8-0.8-1.2c-0.1-0.1-0.2-0.3-0.2-0.4c-0.2-0.4-0.4-0.9-0.6-1.3c-0.1-0.1-0.1-0.3-0.2-0.4c-0.2-0.5-0.4-1-0.5-1.5
					c0-0.1-0.1-0.2-0.1-0.4c-0.2-0.6-0.3-1.2-0.5-1.8c-0.1-0.4-0.1-0.7-0.2-1.1c0-0.2-0.1-0.4-0.1-0.7H414v-46.1
					c0-15.8-12.8-28.7-28.7-28.7H479.6z"/>
				<g>
					<path class="st10" d="M429.2,315.5c0-2.5,1.8-4.5,4-4.5l0.5,0c0.1-0.1,0.3-0.1,0.4-0.2c-1.7-0.5-3-2.2-3-4.2
						c0-2.5,1.8-4.5,4-4.5c0,0,38.8-4,38.8-4l-4.6-6.8c-1.7-2.4-1.1-6,1.2-8.2c1.3-1.2,3.1-1.4,4.4-0.4c8.2,6.3,16.8,12.9,21,22.7
						c4.4,10.2,2.8,24.8-7.4,31c-6.8,4.1-15.4,4.9-23.2,4.2c-3.4-0.3-21.5-4.6-22.4-4.7c-3.1-0.5-6.7-1.5-6.2-5.1
						c0.2-1.1,0.8-2.1,1.7-2.7c0.1,0,0.1-0.1,0.1-0.1c0.1-0.2-0.3-0.4-0.5-0.4c-2.8-0.1-5.5-1.1-5.7-4.3c-0.1-1.1,0.4-2.1,0.9-3.1
						c-0.9-0.5-1.9-0.5-2.7-1.3C429.6,317.8,429.2,316.7,429.2,315.5z"/>
					<polygon class="st18" points="473.9,297.9 480.2,297.2 470.5,292.8 					"/>
					<path class="st11" d="M433.9,311.5c-0.5,0-1-0.4-1-1c0-0.6,0.4-1,1-1l17.8-0.3c0.6,0,1,0.4,1,1c0,0.6-0.4,1-1,1L433.9,311.5
						C433.9,311.5,433.9,311.5,433.9,311.5z"/>
					<path class="st11" d="M435,320.5c-0.5,0-1-0.4-1-1c0-0.6,0.4-1,1-1l17.8-0.3c0.5,0,1,0.4,1,1c0,0.6-0.4,1-1,1L435,320.5
						C435,320.5,435,320.5,435,320.5z"/>
					<path class="st11" d="M452.8,328.8C452.8,328.8,452.8,328.8,452.8,328.8l-14-0.3c-0.6,0-1-0.5-1-1c0-0.5,0.5-1,1-1c0,0,0,0,0,0
						l14,0.3c0.6,0,1,0.5,1,1C453.8,328.3,453.3,328.8,452.8,328.8z"/>
				</g>
			</g>
			<g>
				<path class="st21" d="M465.6,221.1h2.4c-0.8,0.1-1.6,0.2-2.4,0.3V221.1z"/>
				<g>
					<path class="st22" d="M473.7,222.6c0.2,0.1,0.4,0.2,0.7,0.3C474.2,222.8,474,222.7,473.7,222.6z"/>
					<path class="st22" d="M475,223.2c0.2,0.1,0.5,0.3,0.7,0.4C475.5,223.5,475.3,223.4,475,223.2z"/>
					<path class="st22" d="M472.4,222c0.2,0.1,0.4,0.2,0.6,0.3C472.8,222.2,472.6,222.1,472.4,222z"/>
					<path class="st22" d="M476.2,224c0.2,0.2,0.5,0.3,0.7,0.5C476.7,224.3,476.5,224.1,476.2,224z"/>
					<path class="st22" d="M471,221.6c0.2,0.1,0.4,0.1,0.6,0.2C471.4,221.7,471.2,221.6,471,221.6z"/>
					<path class="st22" d="M469.5,221.3c0.2,0,0.3,0.1,0.5,0.1C469.9,221.4,469.7,221.3,469.5,221.3z"/>
					<path class="st22" d="M477.3,224.8c0.2,0.2,0.5,0.4,0.7,0.6C477.8,225.2,477.6,225,477.3,224.8z"/>
					<path class="st22" d="M479.1,226.5c-0.2-0.3-0.5-0.5-0.8-0.8C478.6,225.9,478.8,226.2,479.1,226.5z"/>
					<path class="st22" d="M483.2,235.3c-0.4-3.3-1.9-6.3-4-8.7C481.3,229,482.7,232,483.2,235.3L483.2,235.3z"/>
					<path class="st6" d="M452.6,266.3v-31h0.3c0.9-6.9,6.1-12.4,12.8-13.8c0.8-0.2,1.6-0.3,2.4-0.3c0.5,0,1,0.1,1.5,0.2
						c0.2,0,0.3,0.1,0.5,0.1c0.3,0.1,0.6,0.1,1,0.2c0.2,0.1,0.4,0.1,0.6,0.2c0.3,0.1,0.5,0.2,0.8,0.3c0.2,0.1,0.4,0.2,0.6,0.3
						c0.2,0.1,0.5,0.2,0.7,0.3c0.2,0.1,0.4,0.2,0.7,0.3c0.2,0.1,0.4,0.2,0.6,0.3c0.2,0.1,0.5,0.3,0.7,0.4c0.2,0.1,0.3,0.2,0.5,0.3
						c0.2,0.2,0.5,0.3,0.7,0.5c0.1,0.1,0.3,0.2,0.4,0.3c0.2,0.2,0.5,0.4,0.7,0.6c0.1,0.1,0.2,0.2,0.3,0.3c0.3,0.2,0.5,0.5,0.8,0.8
						c0,0,0.1,0.1,0.1,0.1c2.1,2.4,3.5,5.4,4,8.7l0,0c0.1,0.7,0.2,1.4,0.2,2.2v8.8h85.4v19.9c0,11.4-9.2,20.6-20.6,20.6H434.7v-0.2
						C444.8,285.3,452.6,276.7,452.6,266.3z"/>
					<path class="st19" d="M483.3,237.4c0-0.7-0.1-1.5-0.2-2.2c-0.4-3.3-1.9-6.3-4-8.7c0,0-0.1-0.1-0.1-0.1
						c-0.2-0.3-0.5-0.5-0.8-0.8c-0.1-0.1-0.2-0.2-0.3-0.3c-0.2-0.2-0.5-0.4-0.7-0.6c-0.1-0.1-0.3-0.2-0.4-0.3
						c-0.2-0.2-0.5-0.3-0.7-0.5c-0.2-0.1-0.3-0.2-0.5-0.3c-0.2-0.1-0.5-0.3-0.7-0.4c-0.2-0.1-0.4-0.2-0.6-0.3
						c-0.2-0.1-0.4-0.2-0.7-0.3c-0.2-0.1-0.5-0.2-0.7-0.3c-0.2-0.1-0.4-0.2-0.6-0.3c-0.3-0.1-0.5-0.2-0.8-0.3
						c-0.2-0.1-0.4-0.1-0.6-0.2c-0.3-0.1-0.6-0.1-1-0.2c-0.2,0-0.3-0.1-0.5-0.1c-0.5-0.1-1-0.1-1.5-0.2h106
						c11.4,0,20.6,9.2,20.6,20.6v4.5h-26h-85.4V237.4z"/>
				</g>
			</g>
		</g>
	</g>
</g>
</svg>
